<svg width="190" height="83" viewBox="0 0 190 83" fill="none" xmlns="http://www.w3.org/2000/svg">
<path d="M99.5294 13.343L112.013 12.2611L125.412 24.8277L123.539 36.895L110.348 38.2682L98.1979 25.0774L99.5294 13.343Z" fill="white"/>
<path d="M72.1491 16.0477L89.1266 7.43413L99.5294 13.343L98.1979 24.7861L81.4701 33.15L70.8176 27.366L72.1491 16.0477Z" fill="white"/>
<path d="M70.7222 27.3507L61.6128 35.8201L63.9843 54.1142L74.9758 59.9864L83.5958 52.1192L81.4502 33.1852L70.7222 27.3507Z" fill="white"/>
<path d="M102.409 54.1953L106.105 62.8947H120.177L128.677 47.4575L123.532 36.8818L110.198 38.218L102.409 54.1953Z" fill="white"/>
<path d="M125.394 24.9933L130.784 22.8123C135.892 31.9408 135.475 43.0961 134.627 47.5326H128.716L123.503 36.9059L125.394 24.9933Z" fill="white"/>
<path d="M89.0397 7.46498V1.50277C100.712 -0.536072 111.065 3.72399 114.782 6.10887L112.047 12.2114L99.5145 13.3337L89.0397 7.46498Z" fill="white"/>
<path d="M74.9384 59.9723L75.876 62.9314H106.169L102.566 54.4938L83.6983 52.0621L74.9384 59.9723Z" fill="white"/>
<path d="M64.0358 54.2315L58.956 57.5386C59.8238 59.6341 61.2578 61.957 61.8663 62.8566H75.9681L74.9098 59.9992L64.0358 54.2315Z" fill="white"/>
<path d="M70.7709 27.3266L72.0933 15.8538L68.0546 11.7794C59.5055 19.0705 56.3913 29.9952 55.9028 34.5462L61.5498 35.7971L70.7709 27.3266Z" fill="white"/>
<path fill-rule="evenodd" clip-rule="evenodd" d="M128.041 62.9092C132.262 56.6258 134.724 49.0628 134.724 40.9246C134.724 19.1217 117.05 1.44692 95.2468 1.44692C73.4438 1.44692 55.7691 19.1217 55.7691 40.9246C55.7691 49.0628 58.2316 56.6258 62.4521 62.9092H61.3188C57.21 56.5812 54.8235 49.0316 54.8235 40.9246C54.8235 18.5995 72.9216 0.501343 95.2468 0.501343C117.572 0.501343 135.67 18.5995 135.67 40.9246C135.67 49.0316 133.284 56.5812 129.175 62.9092H128.041Z" fill="black"/>
<path d="M64.5156 54.3991L59.0786 57.945C54.5398 48.3001 55.1387 37.8515 56.0055 33.8328L62.1517 35.2512L64.5156 54.3991Z" fill="black"/>
<path d="M71.9982 16.655L67.5887 12.0846C74.7978 4.58538 85.2185 1.88173 89.5276 1.46732V7.71983L71.9982 16.655Z" fill="black"/>
<path d="M111.38 12.3163L114.325 5.82559C124.836 11.7986 129.772 19.8478 130.927 23.1258L125.235 25.5474L111.38 12.3163Z" fill="black"/>
<path d="M128.372 46.9198H134.788C134.285 52.6471 130.555 59.9626 128.753 62.9045H119.619L128.372 46.9198Z" fill="black"/>
<path d="M80.8698 32.8117L98.2404 24.1831L110.881 38.1478L102.744 54.9886L83.1026 52.5665L80.8698 32.8117Z" fill="black"/>
<path fill-rule="evenodd" clip-rule="evenodd" d="M70.2922 27.0663L61.4425 35.2547L62.0847 35.9487L70.8122 27.8734L81.8064 33.9057L82.2612 33.0768L71.2483 27.0341L72.5446 16.156L71.6057 16.0442L70.2922 27.0663Z" fill="black"/>
<path fill-rule="evenodd" clip-rule="evenodd" d="M98.976 13.5596L88.6642 7.77741L89.1266 6.95265L99.5866 12.8179L112.06 11.7903L112.137 12.7326L99.9071 13.7403L98.6311 24.9234L97.6916 24.8162L98.976 13.5596Z" fill="black"/>
<path fill-rule="evenodd" clip-rule="evenodd" d="M123.12 36.4282L124.857 24.993L125.792 25.135L124.022 36.7887L129.095 47.3316L128.243 47.7416L123.25 37.3655L110.203 38.6702L110.109 37.7293L123.12 36.4282Z" fill="black"/>
<path fill-rule="evenodd" clip-rule="evenodd" d="M102.847 54.0298L106.595 62.6933L105.727 63.0688L101.979 54.4052L102.847 54.0298Z" fill="black"/>
<path fill-rule="evenodd" clip-rule="evenodd" d="M75.4612 60.104L84.0027 52.4188L83.3702 51.7159L74.8403 59.3907L64.168 53.7032L63.7232 54.5377L74.5257 60.2945L75.5248 63.1219L76.4164 62.8068L75.4612 60.104Z" fill="black"/>
<path d="M1.16216 50.3804H54.1143V62.9092H135.906V50.3804H188.859L179.639 60.7817L188.859 70.001H151.745V82.5299H38.2759V70.001H1.16216L10.6179 60.7817L1.16216 50.3804Z" fill="white"/>
<path fill-rule="evenodd" clip-rule="evenodd" d="M0.0933984 49.9076H54.5871V62.4364H135.434V49.9076H189.909L180.288 60.7621L190 70.4738H152.218V83.0027H37.8032V70.4738H0L9.96095 60.7619L0.0933984 49.9076ZM37.8032 69.5282V62.6804L52.7546 50.8532H2.23092L11.2748 60.8015L2.32432 69.5282H37.8032ZM53.6415 51.3572L39.6357 62.4364H53.6415V51.3572ZM38.7487 63.382H151.272V82.0571H38.7487V63.382ZM150.385 62.4364H136.379V51.3572L150.385 62.4364ZM137.266 50.8532H187.808L178.99 60.8012L187.717 69.5282H152.218V62.6804L137.266 50.8532Z" fill="black"/>
<path d="M49.9191 68.8109V76.8972H48.6772V79.6768H55.3833V76.8972H54.3898V72.854L57.3702 76.8972H56.6251V79.6768H63.0828V76.8972H62.0893L58.6121 72.096L61.8409 68.8109H63.0828V65.5258H56.6251V68.8109H57.867L54.3898 71.8433V68.8109H55.3833V65.5258H48.6772V68.8109H49.9191Z" fill="black"/>
<path d="M64.573 72.3486H65.3181L68.0502 79.6768H70.2855L71.5274 76.1391L73.0176 79.6768H75.2529L77.985 72.3486H78.7301V70.0744H74.5078V72.3486H75.5013L74.5078 74.8756L72.7692 70.0744H71.279L69.5404 74.8756L68.7953 72.3486H69.5404V70.0744H64.573V72.3486Z" fill="black"/>
<path d="M80.2203 72.3486H81.2138V77.4026H80.2203V79.6768H86.1812V77.4026H85.1877V70.0744H80.2203V72.3486Z" fill="black"/>
<path d="M81.2138 69.0636V65.7785H85.1877V69.0636H81.2138Z" fill="black"/>
<path fill-rule="evenodd" clip-rule="evenodd" d="M96.8612 75.381C96.944 73.5279 96.2154 69.8217 92.6389 69.8217C88.1682 69.8217 87.6715 73.3594 87.6715 75.1283C87.6715 76.3918 88.1682 79.9295 92.6389 79.9295C95.6193 79.9295 96.8612 76.8972 96.8612 76.3918H93.8807C93.7979 76.813 93.4337 77.6553 92.6389 77.6553C91.6454 77.6553 91.397 76.6445 91.397 76.3918V75.381H96.8612ZM91.397 73.8648H93.6324C93.6324 73.0841 93.4879 72.0832 92.4951 72.0832C91.7118 72.0832 91.397 72.769 91.397 73.8648Z" fill="black"/>
<path d="M98.5998 68.0528H99.3449V77.4026H98.5998V79.6768H103.816V77.4026H103.319V75.6337H103.816L106.051 79.6768H109.28V77.4026H108.535L106.796 74.1175L108.535 72.3486H109.28V70.0744H104.312V72.3486H105.057L103.816 73.8648H103.319V65.5258H98.5998V68.0528Z" fill="black"/>
<path d="M111.267 71.5906H113.005L115.737 65.5258H112.26L111.267 71.5906Z" fill="black"/>
<path d="M117.724 70.8325H120.705V68.5582H124.182C122.791 69.9733 120.953 74.7071 120.208 76.8972H119.215V79.6768H125.921V76.8972H124.679C124.679 74.6735 127.328 70.4113 128.653 68.5582V65.5258H117.724V70.8325Z" fill="black"/>
<path fill-rule="evenodd" clip-rule="evenodd" d="M132.378 72.6013C131.716 72.1802 130.391 70.9335 130.391 69.3163C130.391 67.2947 132.13 65.2731 135.855 65.2731C139.581 65.2731 141.32 67.5474 141.32 69.3163C141.32 70.7314 139.664 72.096 138.836 72.6013C139.829 72.9383 141.816 74.067 141.816 75.8864C141.816 78.1607 139.084 79.9295 135.855 79.9295C132.378 79.9295 129.894 77.6553 129.894 75.8864C129.894 74.1175 131.7 72.9052 132.378 72.6013ZM135.855 71.3379C136.678 71.3379 137.346 70.659 137.346 69.8217C137.346 68.9843 136.678 68.3055 135.855 68.3055C135.032 68.3055 134.365 68.9843 134.365 69.8217C134.365 70.659 135.032 71.3379 135.855 71.3379ZM135.832 77.126C136.792 77.126 137.571 76.3341 137.571 75.3572C137.571 74.3802 136.792 73.5883 135.832 73.5883C134.872 73.5883 134.093 74.3802 134.093 75.3572C134.093 76.3341 134.872 77.126 135.832 77.126Z" fill="black"/>
</svg>
